Coordinates
version=1
nRows=18
nColumns=22
inDegrees=yes

Units are S.I. units (second, meters, Newtons, ...)
If the header above contains a line with 'inDegrees', this indicates whether rotational values are in degrees (yes) or radians (no).

endheader
time	pelvis_tilt	pelvis_list	pelvis_rotation	pelvis_tx	pelvis_ty	pelvis_tz	hip_flexion_r	hip_adduction_r	hip_rotation_r	knee_angle_r	ankle_angle_r	subtalar_angle_r	hip_flexion_l	hip_adduction_l	hip_rotation_l	knee_angle_l	ankle_angle_l	subtalar_angle_l	lumbar_extension	lumbar_bending	lumbar_rotation
      4.79000000	     -0.88209501	     -3.68444530	      5.36645730	      0.64641366	      1.00037945	     -0.02477955	     22.27851121	      2.34132642	     -6.74325401	    -21.86446922	     -1.75536402	      1.91059386	     -4.15879154	     -8.26795855	     -8.50767469	    -44.19093571	     -8.48646785	      6.30747655	      0.62092102	      2.30299450	     -6.96436965
      4.80000000	     -0.79531680	     -3.85783690	      5.49304902	      0.65510011	      1.00173510	     -0.02315641	     21.62893147	      2.69080716	     -6.86759918	    -21.76588040	     -1.50826621	      1.23665741	     -3.03912354	     -8.90882949	     -8.88910972	    -46.37816411	     -8.71216245	      6.07802014	      0.57992901	      2.40936851	     -7.00348058
      4.81000000	     -0.68674482	     -4.00582801	      5.60135656	      0.66358950	      1.00304029	     -0.02164564	     20.96738327	      3.01630410	     -6.96603601	    -21.67399582	     -1.20649660	      0.74835761	     -1.95049343	     -9.47572781	     -9.17630753	    -48.41870993	     -8.55061714	      5.84634254	      0.50285371	      2.49485434	     -7.00717039
      4.82000000	     -0.55664065	     -4.10544865	      5.67712927	      0.67187442	      1.00430803	     -0.02025029	     20.30404791	      3.29551274	     -7.03985309	    -21.61298485	     -0.83931613	      0.33556804	     -0.91384089	     -9.91623104	     -9.35332571	    -50.25856553	     -8.05607295	      5.56410495	      0.38512056	      2.53092774	     -6.91075588
      4.83000000	     -0.42118134	     -4.14810428	      5.72730432	      0.67996127	      1.00554332	     -0.01896715	     19.64096459	      3.52244758	     -7.04541014	    -21.55646591	     -0.45023021	     -0.05003412	      0.08288196	    -10.23349410	     -9.47120213	    -51.87101325	     -7.32665030	      5.20987366	      0.24969386	      2.51156322	     -6.80408231
      4.84000000	     -0.27272246	     -4.13229418	      5.74337990	      0.68785111	      1.00677532	     -0.01777697	     18.96986572	      3.69496394	     -6.99366138	    -21.50488564	     -0.01453674	     -0.33834961	      1.01773565	    -10.41555219	     -9.52763152	    -53.22972578	     -6.39869557	      4.84174591	      0.08716512	      2.43006976	     -6.64038760
      4.85000000	     -0.10913727	     -4.04836663	      5.72397397	      0.69554135	      1.00801985	     -0.01669589	     18.29349974	      3.79507465	     -6.90378199	    -21.46960492	      0.46239160	     -0.50332259	      1.87890120	    -10.45403148	     -9.54396837	    -54.31920690	     -5.32746494	      4.53752086	     -0.10663954	      2.28029823	     -6.40491900
      4.86000000	      0.04430739	     -3.92070809	      5.69274628	      0.70301752	      1.00926420	     -0.01569904	     17.62027907	      3.84970823	     -6.73808204	    -21.40664150	      0.92280782	     -0.60581437	      2.70878684	    -10.39192422	     -9.52813672	    -55.15253746	     -4.19237137	      4.27808743	     -0.29644115	      2.08324163	     -6.18951276
      4.87000000	      0.15213210	     -3.79894735	      5.63458169	      0.71023667	      1.01040254	     -0.01476112	     17.03361996	      3.89531283	     -6.57953065	    -21.38314559	      1.36304149	     -0.66484578	      3.55747528	    -10.29556962	     -9.52054994	    -55.76139654	     -3.02684292	      3.84682238	     -0.44151561	      1.89229076	     -5.90637360
      4.88000000	      0.28151060	     -3.62709059	      5.57801500	      0.71725088	      1.01159714	     -0.01391057	     16.42448897	      3.87855394	     -6.41229233	    -21.34834939	      1.78700265	     -0.69550804	      4.33005886	    -10.11141327	     -9.49996506	    -56.10714899	     -1.83301942	      3.63696747	     -0.62009027	      1.64606386	     -5.62828318
      4.89000000	      0.38297226	     -3.44725923	      5.51250993	      0.72405370	      1.01274547	     -0.01309657	     15.85742540	      3.84333862	     -6.23103505	    -21.31174540	      2.18377633	     -0.70678056	      5.09173173	     -9.90703118	     -9.51323169	    -56.22352268	     -0.66262757	      3.42476985	     -0.76971084	      1.38620699	     -5.34013775
      4.90000000	      0.46590428	     -3.26704122	      5.44793381	      0.73066145	      1.01385774	     -0.01231459	     15.31709057	      3.79669400	     -6.05735898	    -21.26321183	      2.54234919	     -0.71858230	      5.83100721	     -9.70358789	     -9.56638226	    -56.11522473	      0.46739303	      3.22612277	     -0.89766487	      1.12040876	     -5.04805117
      4.91000000	      0.53829600	     -3.09152553	      5.38385546	      0.73711683	      1.01493528	     -0.01156203	     14.78828404	      3.74634037	     -5.89237045	    -21.19522653	      2.86277500	     -0.74791714	      6.53205027	     -9.52175391	     -9.68491795	    -55.78959078	      1.54179377	      3.03485924	     -1.00859309	      0.85464436	     -4.75562898
      4.92000000	      0.60479404	     -2.94806683	      5.34137254	      0.74341540	      1.01596974	     -0.01083888	     14.26429396	      3.71745197	     -5.77589527	    -21.09779063	      3.12392953	     -0.81063400	      7.19834371	     -9.39632982	     -9.84470958	    -55.26138036	      2.56054762	      2.86717397	     -1.10675211	      0.61837288	     -4.47873054
      4.93000000	      0.67499131	     -2.82167172	      5.29940807	      0.74958973	      1.01697413	     -0.01012343	     13.73058865	      3.70412982	     -5.66766735	    -20.97020499	      3.35238597	     -0.90741628	      7.79946607	     -9.31805295	    -10.08214999	    -54.52578631	      3.50146660	      2.68389450	     -1.20046136	      0.39520793	     -4.19747260
      4.94000000	      0.75413841	     -2.71408890	      5.26410372	      0.75564991	      1.01795958	     -0.00943710	     13.17191511	      3.70856613	     -5.56746663	    -20.79653913	      3.54684806	     -1.03064124	      8.32598255	     -9.27976647	    -10.37543206	    -53.58702297	      4.36019611	      2.45437431	     -1.29446470	      0.19041163	     -3.91410192
      4.95000000	      0.83048674	     -2.62217013	      5.24004532	      0.76160401	      1.01890507	     -0.00880371	     12.60864712	      3.72062280	     -5.49780136	    -20.59333760	      3.71710673	     -1.15008883	      8.78290152	     -9.26722706	    -10.70755881	    -52.44632665	      5.16824268	      2.16870189	     -1.37510896	      0.00098854	     -3.64621979
      4.96000000	      0.90136809	     -2.53605189	      5.21512995	      0.76744232	      1.01980166	     -0.00823485	     12.04984733	      3.73135128	     -5.44073743	    -20.37374006	      3.88775200	     -1.25321699	      9.16497035	     -9.25602854	    -11.06462214	    -51.11087157	      5.94068977	      1.84440794	     -1.44059119	     -0.18099686	     -3.36618821
